<svg xmlns="http://www.w3.org/2000/svg" viewBox="0 0 123 123"><title>Artboard 1</title><g id="logo"><path d="M61.5,0V10a7.64,7.64,0,0,1,3.8,1.19l.32.18c12.29,7.09,25,14.43,37.44,21.7,2.71,1.58,3.72,3.35,3.72,6.52,0,17.54,0,31,0,43.73,0,3.24-1,5.05-3.83,6.67-11.39,6.61-23.68,13.73-37.58,21.77A7.82,7.82,0,0,1,61.49,113a7.64,7.64,0,0,1-3.8-1.19C45.79,104.94,33,97.54,19.92,89.93c-2.7-1.58-3.71-3.34-3.7-6.51q0-7.57,0-15.14V61.67q0-3.34,0-6.67c0-5,0-10.22,0-15.34,0-3.21,1-5,3.83-6.65,12.67-7.37,25.33-14.69,37.58-21.78A7.8,7.8,0,0,1,61.5,10V0m0,0a17.62,17.62,0,0,0-8.89,2.57Q33.81,13.45,15,24.36a16.58,16.58,0,0,0-8.8,15.33c0,7.32,0,14.65,0,22s0,14.49,0,21.74a16.45,16.45,0,0,0,8.66,15.17q18.87,11,37.81,21.9a17.46,17.46,0,0,0,8.8,2.53,17.64,17.64,0,0,0,8.89-2.57Q89.18,109.56,108,98.65a16.61,16.61,0,0,0,8.8-15.33q0-21.86,0-43.71a16.49,16.49,0,0,0-8.67-15.17q-18.87-11-37.8-21.91A17.45,17.45,0,0,0,61.5,0Z"/><path d="M66.48,48.06A7.91,7.91,0,0,0,64,47.29a18.39,18.39,0,0,0-2.65-.2h-6.1v11h5.43a18.37,18.37,0,0,0,2.88-.23A9.18,9.18,0,0,0,66.25,57,4.84,4.84,0,0,0,69,52.36a4.72,4.72,0,0,0-.71-2.7A4.82,4.82,0,0,0,66.48,48.06Z"/><path d="M102.74,46.5a14.39,14.39,0,0,0-7.63-13.15C86.38,28.36,77.7,23.28,69,18.29a14.24,14.24,0,0,0-15,0c-8.73,5-17.42,10.06-26.14,15.06a14.21,14.21,0,0,0-7.55,13q-.13,15.09,0,30.18a14.32,14.32,0,0,0,7.64,13.14c8.67,4.95,17.3,10,25.93,15a14.37,14.37,0,0,0,15.39,0c8.5-4.93,17-9.88,25.54-14.72,5.46-3.09,8-7.72,8-13.89,0-4.8,0-9.6,0-14.41C102.75,56.56,102.81,51.53,102.74,46.5ZM69.47,85.12,59.21,66.37H55.32V85.12H44.18V37.88h18a31.3,31.3,0,0,1,6.64.7,17.3,17.3,0,0,1,5.81,2.37,12.42,12.42,0,0,1,4.1,4.4,13.77,13.77,0,0,1,1.53,6.81,12.55,12.55,0,0,1-2.6,8.07,14.19,14.19,0,0,1-7.2,4.67L82.81,85.12Z"/></g></svg>